<svg width="320" height="201" viewBox="0 0 320 201" fill="none" xmlns="http://www.w3.org/2000/svg">
<g id="Chat Hero">
<g id="Mobile Testing and Group Discussion" clip-path="url(#clip0)">
<path id="Vector" opacity="0.18" d="M47.7087 81.8644C54.8971 74.215 65.5961 70.6439 72.7262 62.9399C82.4 52.4883 83.635 36.6782 91.3243 24.6928C96.7612 16.2395 105.192 10.0614 114.353 6.01032C130.383 -1.00041 148.405 -1.90361 165.049 3.46962C172.73 5.9869 180.074 9.83502 188.089 10.8263C202.004 12.5435 217.526 5.702 229.421 13.168C237.577 18.2806 240.645 28.4356 243.744 37.5837C247.887 49.811 254.167 55.9774 260.268 73.8793C263.099 82.1922 272.54 87.902 272.21 96.6793C272.12 99.099 271.367 101.605 269.592 103.236C268.167 104.547 266.256 105.156 264.412 105.722C200.583 125.217 134.053 134.285 67.3631 132.581C54.1981 132.241 46.2835 130.063 42.5398 117.34C38.9126 105.019 38.2447 91.9296 47.7087 81.8644Z" fill="#446DF6"/>
<path id="Vector_2" d="M202.59 54.4045C202.878 53.4483 203.592 52.6716 203.903 51.7233C204.159 50.9427 204.128 50.0997 204.334 49.3075C204.707 48.0438 205.556 46.9758 206.699 46.3297C207.839 45.6973 209.107 45.3343 210.408 45.2681C213.187 45.0453 215.959 45.7758 218.272 47.3405C220.578 48.9257 222.188 51.342 222.769 54.0884C222.881 54.9554 223.059 55.8126 223.301 56.6525C223.6 57.472 224.202 58.2487 225.045 58.4594L224.963 59.4351C225.729 59.5903 226.433 59.9694 226.986 60.5248C227.538 61.0802 227.916 61.7873 228.07 62.5573C228.311 63.857 227.884 65.2464 228.295 66.503C228.684 67.6739 229.701 68.5559 229.849 69.7579C229.884 70.4991 229.738 71.2378 229.421 71.9084C228.818 73.4851 228.163 75.0384 227.456 76.5683C226.373 75.3974 225.243 74.2266 223.783 73.5944C222.905 73.2041 221.95 73.0714 221.064 72.7631C216.249 71.1083 213.984 65.3712 209.472 63.0062C208.458 62.4715 207.165 62.2959 206.21 61.6909C205.491 61.2343 205.472 60.6099 205.045 59.9386C203.883 58.1433 201.849 56.8983 202.59 54.4045Z" fill="#3F3D56"/>
<path id="Vector_3" d="M205.328 65.5625C205.608 66.8699 206.536 67.9354 207.511 68.8486C208.016 69.3208 208.571 69.8087 208.738 70.4838C208.767 70.7066 208.832 70.9229 208.932 71.1239C209.208 71.5142 209.825 71.4595 210.264 71.2488C210.786 70.9762 211.241 70.5892 211.595 70.1163C211.948 69.6435 212.192 69.0969 212.307 68.5169C212.529 67.3539 212.394 66.1505 211.918 65.0668C211.508 64.0658 210.891 63.1636 210.109 62.4196C209.326 61.6756 208.396 61.1067 207.379 60.7504C204.994 60.0362 205.017 64.0989 205.328 65.5625Z" fill="#3F3D56"/>
<path id="Vector_4" opacity="0.18" d="M319.968 123.362C320.501 118.359 314.101 115.791 309.095 115.623C298.64 115.276 288.361 117.965 278.046 119.698C251.005 124.283 223.289 122.523 196.023 125.357C174.873 127.554 154.124 132.495 133.289 136.753C108.823 141.748 84.1937 145.803 59.5025 149.511C47.4248 151.326 35.2112 153.71 23.0442 154.752C17.4326 155.236 1.97626 154.424 0.0422815 162.507C-0.419854 164.431 1.96073 165.692 3.85976 166.207C19.5413 170.477 35.2423 174.746 51.2384 177.669C61.619 179.57 72.151 180.909 82.1976 184.144C90.986 186.977 99.285 191.22 108.046 194.112C122.885 199.01 138.691 199.919 154.287 200.785C158.17 201.004 162.054 201.215 165.879 200.571C170.803 199.739 175.37 197.523 179.86 195.329L313.161 130.22" fill="#1D2741"/>
<path id="Vector_5" d="M93.9806 71.202L99.934 57.7882C99.934 57.7882 106.384 54.666 110.847 57.3628C115.309 60.0596 111.53 69.1374 110.847 72.0059C110.163 74.8745 105.763 75.9946 104.089 74.6832C102.416 73.3719 100.225 77.2552 100.225 77.2552L93.9806 71.202Z" fill="url(#paint0_linear)"/>
<path id="Vector_6" d="M309.569 125.505L131.317 189.225C123.777 191.921 115.549 191.954 107.988 189.319L19.0291 158.284C18.3604 158.052 17.7364 157.706 17.1845 157.262C16.026 156.32 15.2803 154.96 15.1068 153.472C15.0756 153.22 15.06 152.966 15.0602 152.711C15.0343 151.346 15.4869 150.016 16.339 148.953C17.191 147.889 18.388 147.161 19.7204 146.896L28.0816 145.128L118.202 126.047L216.392 105.254L257.402 112.103L287.336 117.114L309.569 125.505Z" fill="url(#paint1_linear)"/>
<path id="Vector_7" d="M318.058 112.883C318.058 115.652 317.206 118.352 315.617 120.614C314.029 122.876 311.784 124.589 309.188 125.517L130.936 189.237C123.397 191.933 115.168 191.966 107.608 189.331L18.6408 158.284C17.9721 158.052 17.3481 157.706 16.7961 157.262L14.7262 153.472L14.6796 153.386V136.362L117.837 126.044L257.021 112.103L311.258 106.678C312.466 106.556 313.684 106.794 314.758 107.363C315.832 107.932 316.715 108.807 317.297 109.878" fill="#446DF6"/>
<path id="Vector_8" d="M318.058 112.883C318.058 115.652 317.206 118.352 315.617 120.614C314.029 122.876 311.784 124.589 309.188 125.517L130.936 189.237C123.397 191.933 115.168 191.966 107.608 189.331L18.6408 158.284C17.9721 158.052 17.3481 157.706 16.7961 157.262L14.7262 153.472L14.6796 153.386V136.362L117.837 126.044L257.021 112.103L311.258 106.678C312.466 106.556 313.684 106.794 314.758 107.363C315.832 107.932 316.715 108.807 317.297 109.878" fill="url(#paint2_linear)"/>
<path id="Vector_9" d="M317.67 109.89C317.011 111.775 315.941 113.487 314.538 114.902C313.134 116.316 311.434 117.398 309.561 118.066L131.309 181.791C123.769 184.485 115.541 184.517 107.981 181.88L19.0292 150.846C18.3606 150.615 17.7366 150.27 17.1845 149.827L15.1146 146.034L15.068 145.948V136.362L118.225 126.044L257.402 112.103L311.639 106.678C312.847 106.556 314.064 106.794 315.138 107.363C316.212 107.932 317.096 108.807 317.678 109.878" fill="url(#paint3_linear)"/>
<path id="Vector_10" d="M314.633 107.139L131.332 172.9C123.793 175.597 115.564 175.628 108.004 172.99L19.0291 141.955C13.3903 140.004 13.9029 131.808 19.7476 130.567L207.751 88.7683C210.106 88.2432 212.542 88.2007 214.913 88.6434L309.821 105.507C310.551 105.636 315.336 106.885 314.633 107.139" fill="#446DF6"/>
<path id="Vector_11" d="M206.784 72.525C206.784 72.525 198.788 82.0516 195.852 85.1738C191.864 89.4162 180.645 85.1738 180.645 85.1738L185.2 94.5014L189.701 95.1298L205.383 83.8118L206.784 72.525Z" fill="url(#paint4_linear)"/>
<path id="Vector_12" d="M178.462 82.5902L178.058 81.4897H179.949V80.6974H181.53V79.9247L184.202 80.7559L188.179 81.7238L189.235 81.2594L201.666 84.2489L201.476 84.9787L188.831 90.4075L183.421 89.5137L178.462 82.5902Z" fill="#446DF6"/>
<path id="Vector_13" d="M130.447 74.7145C130.447 74.7145 132.35 63.8765 132.847 60.3211C133.751 53.8035 136.264 51.5594 138.889 51.2042C149.689 49.7524 152.544 49.4402 164.132 51.0872C169.837 51.8989 171.041 74.0003 171.27 80.2291C171.307 81.2701 171.011 82.2957 170.427 83.1561L166.384 86.0559L165.188 96.2538L135.981 97.7954L135.705 86.3759L124.167 86.1105L124.513 77.2669L130.447 74.7145Z" fill="#446DF6"/>
<path id="Vector_14" d="M135.709 86.3759L137.402 61.9095C137.402 61.9095 148.951 61.5661 148.901 63.3652C148.85 65.1644 140.482 81.7355 140.482 81.7355L135.709 86.3759Z" fill="url(#paint5_linear)"/>
<path id="Vector_15" d="M155.651 49.9319C156.326 49.8274 157.016 49.9495 157.616 50.2793C157.616 50.2793 156.179 56.5861 150.835 59.0175C145.491 61.449 144.548 52.8902 144.548 52.8902L155.651 49.9319Z" fill="url(#paint6_linear)"/>
<path id="Vector_16" d="M121.468 76.4278C121.313 76.4144 121.157 76.4399 121.014 76.5019C120.687 76.6854 120.722 77.2005 120.967 77.4854C121.245 77.7381 121.566 77.9378 121.915 78.0747C121.987 78.1042 122.052 78.1481 122.107 78.2038C122.162 78.2595 122.205 78.3258 122.233 78.3987C122.252 78.5076 122.236 78.6199 122.186 78.7187C121.852 79.5305 120.878 79.8154 120.039 80.0573C118.767 80.4264 117.535 80.9219 116.361 81.5365C116.216 81.5911 116.097 81.6983 116.027 81.837C115.911 82.1882 116.416 82.4068 116.773 82.4302C117.664 82.4966 118.558 82.4966 119.449 82.4302C119.216 82.5941 118.948 82.8205 119.01 83.1132C119.072 83.4059 119.344 83.484 119.592 83.5035C119.843 83.4931 120.095 83.5208 120.338 83.5854C120.726 83.7454 120.905 84.2294 121.262 84.4714C121.618 84.6645 122.032 84.7214 122.427 84.6314C123.182 84.5417 123.926 84.3783 124.649 84.1435C125.073 84.0286 125.47 83.8266 125.814 83.5503C126.197 83.1461 126.465 82.6461 126.59 82.1024C126.955 80.9316 127.425 78.5899 126.408 77.5869C125.39 76.5839 122.788 76.4629 121.468 76.4278Z" fill="url(#paint7_linear)"/>
<path id="Vector_17" d="M100.221 77.2551L108.889 91.3558C108.889 91.3558 111.674 96.3943 114.951 95.7113C118.229 95.0283 121.297 90.9031 121.297 90.9031L125.651 95.3991C125.651 95.3991 118.796 107.029 111.309 106.011C107.142 105.445 98.2097 96.7338 98.2097 96.7338L100.221 77.2551Z" fill="#446DF6"/>
<path id="Vector_18" d="M100.221 77.2551L108.889 91.3558C108.889 91.3558 111.674 96.3943 114.951 95.7113C118.229 95.0283 121.297 90.9031 121.297 90.9031L125.651 95.3991C125.651 95.3991 118.796 107.029 111.309 106.011C107.142 105.445 98.2097 96.7338 98.2097 96.7338L100.221 77.2551Z" fill="url(#paint8_linear)"/>
<path id="Vector_19" d="M26.2991 129.084L197.359 94.1775L293.693 112.536L140.388 166.328L26.2991 129.084Z" fill="url(#paint9_linear)"/>
<path id="Vector_20" opacity="0.18" d="M118.905 139.594C120.676 145.542 127.216 149.624 133.305 148.57C137.383 147.872 140.835 145.265 144.404 143.157C153.209 137.988 163.356 135.596 173.53 136.292C179.6 136.725 186.058 138.193 191.526 135.512C195.316 133.65 197.969 130.048 201.476 127.706C204.443 125.716 207.918 124.666 211.13 123.117C216.132 120.705 221.814 114.37 229.852 108.477C234.598 105 242.843 101.784 245.029 99.337C240.528 98.1076 236.458 103.31 229.852 104.02C216.039 105.468 197.806 104.574 188.132 105.827C176.594 107.318 165.045 108.813 153.647 111.139C129.301 116.103 105.542 122.594 81.0253 126.781C76.1554 127.616 63.5806 128.342 60.5476 133.209C56.0272 140.488 70.3534 143.895 74.9825 144.465C78.6913 144.91 119.934 143.048 118.905 139.594Z" fill="#1D2741"/>
<path id="Vector_21" d="M171.049 120.607C171.049 120.607 165.841 120.794 164.882 122.106C163.922 123.417 165.856 124.498 165.856 124.498L176.26 120.236L171.049 120.607Z" fill="#25233A"/>
<path id="Vector_22" d="M167.72 96.7338C167.72 96.7338 170.462 96.5855 171.763 98.7359C173.064 100.886 173.064 106.007 173.064 106.007C173.064 106.007 170.874 108.758 168.439 107.81C166.004 106.861 167.021 101.487 167.021 101.487L167.72 96.7338Z" fill="#25233A"/>
<path id="Vector_23" d="M141.118 115.592L149.903 110.725L149.623 101.686C149.623 101.686 139.363 105.554 139.192 106.073C139.021 106.592 141.118 115.592 141.118 115.592Z" fill="url(#paint10_linear)"/>
<path id="Vector_24" d="M135.534 90.6846C135.534 90.6846 128.128 107.95 130.412 112.883C131.724 115.717 135.029 116.579 137.6 116.786C138.518 116.866 139.436 116.63 140.203 116.117C140.971 115.603 141.541 114.843 141.821 113.961C143.65 108.181 148.12 97.0226 150.551 116.263C150.94 119.425 161.732 117.902 163.491 116.357C165.25 114.811 169.278 105.246 169.278 105.246C169.278 105.246 168.427 102.26 166.738 101.487C166.738 101.487 168.994 92.9989 165.449 91.6602C165.437 91.6641 140.047 98.615 135.534 90.6846Z" fill="#446DF6"/>
<path id="Vector_25" d="M135.534 90.6846C135.534 90.6846 128.128 107.95 130.412 112.883C131.724 115.717 135.029 116.579 137.6 116.786C138.518 116.866 139.436 116.63 140.203 116.117C140.971 115.603 141.541 114.843 141.821 113.961C143.65 108.181 148.12 97.0226 150.551 116.263C150.94 119.425 161.732 117.902 163.491 116.357C165.25 114.811 169.278 105.246 169.278 105.246C169.278 105.246 168.427 102.26 166.738 101.487C166.738 101.487 168.994 92.9989 165.449 91.6602C165.437 91.6641 140.047 98.615 135.534 90.6846Z" fill="url(#paint11_linear)"/>
<path id="Vector_26" d="M97.266 106.007C97.266 106.007 129.445 114.905 135.398 117.758C141.351 120.611 142.672 120.88 142.672 120.88L140.388 127.542L78.4777 121.142L97.266 106.007Z" fill="#446DF6"/>
<path id="Vector_27" d="M97.266 106.007C97.266 106.007 129.445 114.905 135.398 117.758C141.351 120.611 142.672 120.88 142.672 120.88L140.388 127.542L78.4777 121.142L97.266 106.007Z" fill="url(#paint12_linear)"/>
<path id="Vector_28" d="M141.285 124.904L129.216 121.848L122.664 113.379L96.1282 121.848L97.3088 123.628L140.388 127.523L141.285 124.904Z" fill="url(#paint13_linear)"/>
<path id="Vector_29" d="M56.9281 143.048L79.9534 150.498C80.1205 150.557 80.3028 150.557 80.4699 150.498L80.6524 150.428C80.8023 150.37 80.9305 150.266 81.0194 150.132C81.1083 149.997 81.1535 149.839 81.1488 149.677C81.1441 149.516 81.0898 149.36 80.9932 149.231C80.8967 149.102 80.7627 149.006 80.6097 148.957L57.4019 141.58C57.2387 141.522 57.0603 141.522 56.8971 141.58V141.58C56.7482 141.638 56.6207 141.741 56.5319 141.874C56.443 142.007 56.3972 142.165 56.4006 142.325C56.404 142.485 56.4564 142.641 56.5508 142.77C56.6452 142.9 56.777 142.996 56.9281 143.048Z" fill="#25233A"/>
<path id="Vector_30" d="M234.901 98.3066L263.903 103.934C264.652 104.082 265.427 104.009 266.136 103.724L268.466 102.799C268.651 102.728 268.807 102.597 268.911 102.428C269.015 102.259 269.061 102.061 269.043 101.863C269.024 101.665 268.941 101.479 268.806 101.332C268.672 101.186 268.494 101.089 268.299 101.054L240.388 95.8128C239.548 95.6532 238.68 95.7109 237.868 95.9806L234.827 96.9797C234.683 97.0263 234.559 97.1195 234.473 97.2447C234.388 97.37 234.346 97.5202 234.354 97.6718C234.363 97.8235 234.421 97.968 234.52 98.0829C234.619 98.1978 234.753 98.2764 234.901 98.3066V98.3066Z" fill="#446DF6"/>
<path id="Vector_31" d="M234.901 98.3066L263.903 103.934C264.652 104.082 265.427 104.009 266.136 103.724L268.466 102.799C268.651 102.728 268.807 102.597 268.911 102.428C269.015 102.259 269.061 102.061 269.043 101.863C269.024 101.665 268.941 101.479 268.806 101.332C268.672 101.186 268.494 101.089 268.299 101.054L240.388 95.8128C239.548 95.6532 238.68 95.7109 237.868 95.9806L234.827 96.9797C234.683 97.0263 234.559 97.1195 234.473 97.2447C234.388 97.37 234.346 97.5202 234.354 97.6718C234.363 97.8235 234.421 97.968 234.52 98.0829C234.619 98.1978 234.753 98.2764 234.901 98.3066V98.3066Z" fill="url(#paint14_linear)"/>
<path id="Vector_32" d="M234.901 97.0422L263.903 102.674C264.652 102.818 265.426 102.745 266.136 102.463L268.466 101.538C268.651 101.467 268.807 101.337 268.911 101.168C269.015 100.999 269.061 100.8 269.043 100.602C269.024 100.404 268.941 100.218 268.806 100.072C268.672 99.9259 268.494 99.8281 268.299 99.7936L240.388 94.5405C239.548 94.3817 238.681 94.4381 237.868 94.7044L234.819 95.7113C234.674 95.7573 234.548 95.851 234.461 95.9774C234.375 96.1038 234.333 96.2557 234.342 96.4088C234.352 96.5619 234.412 96.7074 234.513 96.8222C234.614 96.937 234.751 97.0144 234.901 97.0422V97.0422Z" fill="#446DF6"/>
<path id="Vector_33" d="M130.26 71.1473C130.26 71.1473 130.979 70.0155 132.932 70.1248C134.885 70.2341 138.474 71.1786 138.474 71.1786L126.047 97.7642H120C119.753 97.7642 119.51 97.7016 119.294 97.5821C119.078 97.4626 118.895 97.29 118.763 97.0805C118.631 96.871 118.554 96.6313 118.538 96.3838C118.523 96.1362 118.57 95.8888 118.676 95.6645L130.26 71.1473Z" fill="#446DF6"/>
<path id="Vector_34" d="M130.26 71.1473C130.26 71.1473 130.979 70.0155 132.932 70.1248C134.885 70.2341 138.474 71.1786 138.474 71.1786L126.047 97.7642H120C119.753 97.7642 119.51 97.7016 119.294 97.5821C119.078 97.4626 118.895 97.29 118.763 97.0805C118.631 96.871 118.554 96.6313 118.538 96.3838C118.523 96.1362 118.57 95.8888 118.676 95.6645L130.26 71.1473Z" fill="url(#paint15_linear)"/>
<path id="Vector_35" d="M131.561 71.1473C131.561 71.1473 132.284 70.0155 134.237 70.1248C135.545 70.2486 136.843 70.4677 138.12 70.7805C138.319 70.8257 138.505 70.9152 138.664 71.0423C138.824 71.1694 138.953 71.3309 139.042 71.5148C139.131 71.6987 139.178 71.9004 139.179 72.105C139.18 72.3096 139.136 72.5118 139.049 72.6967L127.845 96.7104C127.698 97.0256 127.464 97.2921 127.172 97.4788C126.88 97.6654 126.541 97.7644 126.194 97.7642H121.297C121.05 97.7646 120.807 97.7022 120.591 97.5826C120.375 97.4631 120.192 97.2904 120.06 97.0807C119.928 96.8709 119.851 96.631 119.837 96.3834C119.822 96.1357 119.87 95.8884 119.977 95.6645L131.561 71.1473Z" fill="#446DF6"/>
<path id="Vector_36" d="M131.561 71.1473C131.561 71.1473 132.284 70.0155 134.237 70.1248C135.545 70.2486 136.843 70.4677 138.12 70.7805C138.319 70.8257 138.505 70.9152 138.664 71.0423C138.824 71.1694 138.953 71.3309 139.042 71.5148C139.131 71.6987 139.178 71.9004 139.179 72.105C139.18 72.3096 139.136 72.5118 139.049 72.6967L127.845 96.7104C127.698 97.0256 127.464 97.2921 127.172 97.4788C126.88 97.6654 126.541 97.7644 126.194 97.7642H121.297C121.05 97.7646 120.807 97.7022 120.591 97.5826C120.375 97.4631 120.192 97.2904 120.06 97.0807C119.928 96.8709 119.851 96.631 119.837 96.3834C119.822 96.1357 119.87 95.8884 119.977 95.6645L131.561 71.1473Z" fill="url(#paint16_linear)"/>
<path id="Vector_37" d="M69.7942 120.95C69.7942 120.95 64.2951 104.508 79.5029 84.2255C85.2349 76.5761 89.8175 72.7162 93.301 70.8741C97.1184 68.8564 101.635 71.9864 101.188 76.299C100.163 86.2003 98.233 104.898 98.233 105.051C98.233 105.203 75.2233 124.12 69.7942 120.95Z" fill="#446DF6"/>
<path id="Vector_38" d="M87.7981 81.7355C87.7981 81.7355 75.7825 101.995 78.5359 115.299C78.5359 115.299 99.3554 107.037 98.2175 105.039C97.0796 103.041 97.2816 81.7238 97.2816 81.7238L87.7981 81.7355Z" fill="url(#paint17_linear)"/>
<path id="Vector_39" d="M132.847 130.36C130.89 131.371 128.797 132.087 126.633 132.487C125.961 132.612 125.285 132.706 124.61 132.768C119.293 128.674 114.31 124.159 109.709 119.268C100.07 126.09 88.7961 132.066 77.0873 130.739C75.635 130.638 74.2202 130.229 72.9359 129.54C72.0905 128.998 71.3422 128.315 70.7223 127.523C69.7242 126.286 68.9359 124.791 68.8504 123.503C68.6679 120.771 70.9437 119.865 73.1728 118.632C83.8745 112.715 95.0848 107.779 106.668 103.884C109.215 103.025 112.027 102.221 114.54 103.185C117.052 104.149 118.598 106.6 119.977 108.907L132.847 130.36Z" fill="#446DF6"/>
<path id="Vector_40" d="M132.847 130.36C130.89 131.371 128.797 132.087 126.633 132.487C125.961 132.612 125.285 132.706 124.61 132.768C119.293 128.674 114.31 124.159 109.709 119.268C100.07 126.09 88.7961 132.066 77.0873 130.739C75.635 130.638 74.2202 130.229 72.9359 129.54C72.0905 128.998 71.3422 128.315 70.7223 127.523C69.7242 126.286 68.9359 124.791 68.8504 123.503C68.6679 120.771 70.9437 119.865 73.1728 118.632C83.8745 112.715 95.0848 107.779 106.668 103.884C109.215 103.025 112.027 102.221 114.54 103.185C117.052 104.149 118.598 106.6 119.977 108.907L132.847 130.36Z" fill="url(#paint18_linear)"/>
<path id="Vector_41" d="M87.798 81.7355C87.798 81.7355 93.9806 100.508 97.0874 103.052C100.194 105.597 117.67 89.4669 117.67 89.4669V83.2225L102.734 89.7518C102.734 89.7518 101.938 74.1408 100.447 73.1729C98.9553 72.205 89.6582 71.1239 87.798 81.7355Z" fill="#446DF6"/>
<path id="Vector_42" d="M87.798 81.7355C87.798 81.7355 93.9806 100.508 97.0874 103.052C100.194 105.597 117.67 89.4669 117.67 89.4669V83.2225L102.734 89.7518C102.734 89.7518 101.938 74.1408 100.447 73.1729C98.9553 72.205 89.6582 71.1239 87.798 81.7355Z" fill="url(#paint19_linear)"/>
<path id="Vector_43" d="M119.499 81.9736C120.059 81.7671 120.644 81.6359 121.239 81.5833C122.517 81.4194 123.021 81.0799 124.307 81.1267C125.724 81.1267 124.66 82.1531 124.252 82.2975C123.829 82.4038 123.428 82.5849 123.068 82.8322C122.466 83.3474 122.532 84.2684 122.439 85.0568C122.301 86.2073 121.725 87.2593 120.831 87.9915C119.937 88.7237 118.796 89.0791 117.647 88.9829C117.493 88.9861 117.34 88.9553 117.199 88.8926C117.058 88.8299 116.932 88.7368 116.831 88.62C116.727 88.4305 116.677 88.2157 116.687 87.9994C116.637 86.9145 116.237 85.3026 116.812 84.3309C117.204 83.6479 118.645 81.9736 119.499 81.9736Z" fill="url(#paint20_linear)"/>
<path id="Vector_44" d="M96.2718 55.025C95.4557 55.6601 94.9024 56.5763 94.7184 57.597C94.5402 58.606 94.4454 59.6281 94.4349 60.6528C94.344 62.1469 94.1178 63.6296 93.7592 65.0825C93.8665 64.989 94.0058 64.9413 94.1476 64.9498C94.2064 65.3567 94.2247 65.7685 94.2019 66.1791L94.8427 66.0738C94.8427 67.0807 94.8039 68.0876 94.7262 69.0945C96.3223 68.2671 97.5301 66.8621 98.699 65.4922C98.7697 65.4171 98.8287 65.3315 98.8738 65.2386C98.9177 65.0865 98.927 64.9264 98.901 64.7702C98.7847 64.0512 98.9062 63.3137 99.2466 62.6705C99.6349 62.0617 100.482 61.7027 101.103 62.0578C101.899 62.5144 101.833 63.6579 102.062 64.5478C102.454 63.76 102.737 62.9223 102.905 62.0578C102.94 61.7339 103.041 61.4206 103.2 61.1368C103.381 60.9111 103.611 60.7297 103.872 60.606C105.419 59.7782 107.206 59.5253 108.92 59.8918C109.872 60.1025 110.831 60.5045 111.79 60.3211C112.002 60.2535 112.226 60.2335 112.447 60.2625C112.835 60.3562 113.122 60.8402 113.511 60.7465C113.614 60.7043 113.707 60.6403 113.783 60.5588C113.86 60.4773 113.918 60.3803 113.953 60.2742C114.358 59.3855 114.523 58.4051 114.43 57.432C114.337 56.4589 113.991 55.5276 113.425 54.7323C114.075 54.9039 114.742 55.0021 115.414 55.025C112.718 51.2667 107.86 49.1436 103.316 49.9241C102.304 50.0548 101.34 50.4386 100.513 51.0403C100.065 51.4109 99.6972 51.8684 99.4303 52.3855C99.1634 52.9026 99.0031 53.4685 98.9592 54.0493C98.8738 54.8962 98.7223 54.6465 98 54.5723C97.3889 54.515 96.7773 54.6752 96.2718 55.025V55.025Z" fill="#3F3D56"/>
<path id="Vector_45" d="M99.8602 63.6462C99.8602 63.9233 99.9301 64.1965 99.9456 64.4736C99.9728 64.9615 99.8446 65.5039 100.12 65.9098C100.297 66.1241 100.524 66.2905 100.781 66.3938C100.855 66.4431 100.944 66.4652 101.033 66.4562C101.089 66.4369 101.139 66.4034 101.179 66.359C101.218 66.3145 101.245 66.2607 101.258 66.2025C101.368 65.8201 101.368 65.4142 101.258 65.0317C101.153 64.6619 101.076 64.285 101.025 63.9038C101.002 63.6267 101.072 63.2247 100.878 62.9867C100.419 62.4325 99.8563 63.1584 99.8602 63.6462Z" fill="url(#paint21_linear)"/>
<path id="Vector_46" d="M132.427 82.0048C132.159 81.7043 131.751 81.3843 131.406 81.5833C131.06 81.7823 131.149 82.3639 131.313 82.7541C131.476 83.1444 131.674 83.6323 131.856 84.0694C131.661 83.7109 131.413 83.3834 131.122 83.0976C131.035 82.9955 130.916 82.9255 130.784 82.8985C130.682 82.9013 130.584 82.9392 130.506 83.006C130.428 83.0728 130.376 83.1643 130.357 83.2654C130.328 83.4701 130.348 83.6788 130.416 83.8742L130.858 85.5914C130.612 85.2228 130.28 84.9201 129.891 84.7094C129.837 84.6671 129.772 84.6402 129.704 84.6312C129.636 84.6223 129.566 84.6318 129.503 84.6587C129.351 84.7523 129.363 84.9748 129.402 85.1504C129.586 85.9783 129.863 86.7823 130.229 87.5467C130.016 87.3243 129.705 87.0823 129.452 87.2306C129.2 87.3789 129.25 87.8668 129.398 88.1868L130.252 90.0601C130.317 90.2684 130.455 90.4459 130.641 90.5597C131.029 90.7119 131.379 90.3021 131.581 89.9469C132.233 88.7919 132.8 87.5906 133.278 86.3525C133.549 85.6578 133.911 84.7484 133.724 84.0108C133.538 83.2732 132.909 82.5551 132.427 82.0048Z" fill="url(#paint22_linear)"/>
<path id="Vector_47" d="M140.777 126.395H143.891L145.503 121.848L142.672 120.861L140.777 126.395Z" fill="url(#paint23_linear)"/>
<path id="Vector_48" d="M150.221 113.57C150.536 113.058 150.951 112.616 151.441 112.271C151.687 112.102 151.976 112.007 152.274 111.995C152.572 111.983 152.867 112.056 153.126 112.204C153.332 112.378 153.501 112.591 153.624 112.831C153.746 113.07 153.82 113.333 153.841 113.602C154.078 115.096 153.767 116.618 153.433 118.094C152.724 121.25 151.916 124.381 151.01 127.488C151 127.61 150.962 127.729 150.9 127.834C150.838 127.94 150.754 128.031 150.652 128.1C150.551 128.168 150.435 128.213 150.314 128.231C150.193 128.248 150.07 128.238 149.953 128.202C148.137 128.088 146.344 127.738 144.617 127.16C144.36 127.105 144.13 126.96 143.969 126.75C143.906 126.589 143.88 126.415 143.892 126.243C143.904 126.07 143.954 125.902 144.039 125.751C145.72 121.419 147.507 117.387 150.221 113.57Z" fill="#25233A"/>
<path id="Vector_49" d="M127.107 132.393L129.515 134.532L134.28 132.768L132.843 130.36L127.107 132.393Z" fill="url(#paint24_linear)"/>
<path id="Vector_50" d="M129.515 134.536L132.144 139.813L146.019 135.843C146.019 135.843 146.746 133.431 143.518 133.182C140.291 132.932 134.28 132.788 134.28 132.788L129.515 134.536Z" fill="#25233A"/>
<path id="Vector_51" d="M128.501 131.644L126.641 132.487C125.969 132.612 125.293 132.706 124.617 132.768C119.301 128.674 114.318 124.159 109.717 119.268C100.078 126.09 88.8039 132.066 77.0952 130.739C75.6428 130.638 74.228 130.229 72.9437 129.54C72.0983 128.998 71.35 128.315 70.7301 127.523V127.523C73.1534 128.955 77.1728 127.523 77.1728 127.523C77.1728 127.523 108.734 111.131 110.571 110.811C112.408 110.491 128.501 131.644 128.501 131.644Z" fill="url(#paint25_linear)"/>
<path id="Vector_52" d="M145.072 50.4159C145.072 50.4159 144.792 55.9266 148.419 57.2379C152.047 58.5492 156.602 50.4159 156.602 50.4159C156.602 50.4159 154.796 50.0061 154.311 47.7035C151.953 36.6118 147.798 49.5885 145.072 50.4159Z" fill="url(#paint26_linear)"/>
<path id="Vector_53" d="M138.551 45.0535C138.551 45.0535 139.542 55.2007 144.765 56.5198C149.988 57.8389 153.309 47.8986 153.309 47.8986C153.309 47.8986 157.041 37.6187 151.309 37.5953C145.577 37.5719 136.773 34.4926 138.551 45.0535Z" fill="url(#paint27_linear)"/>
<path id="Vector_54" d="M166.388 86.0559L157.115 89.2405C156.824 89.3407 156.516 89.3808 156.209 89.3584C155.902 89.336 155.603 89.2515 155.33 89.1101C155.056 88.9687 154.814 88.7732 154.617 88.5354C154.421 88.2976 154.274 88.0224 154.186 87.7263L152.983 83.6674C152.861 83.2543 152.887 82.8113 153.056 82.4155C153.226 82.0198 153.528 81.6963 153.911 81.5014L162.33 77.2552L160.866 61.9095L135.724 86.3759L135.829 90.6689C135.829 90.6689 137.181 93.7209 144.528 94.1814C151.876 94.6419 165.748 91.6642 165.748 91.6642L166.388 86.0559Z" fill="url(#paint28_linear)"/>
<path id="Vector_55" d="M153.922 83.2537C153.922 83.2537 151.592 82.2858 150.218 82.6917C148.843 83.0976 147.724 83.5347 147.724 83.5347C147.744 83.6745 147.795 83.8083 147.872 83.9263C147.949 84.0444 148.051 84.1438 148.171 84.2177C148.466 84.4284 146.377 84.9982 144.998 85.3182C144.691 85.3925 144.425 85.5851 144.258 85.8545C144.091 86.1239 144.036 86.4485 144.105 86.7584V86.7584C144.243 87.3925 144.575 87.9675 145.054 88.4033C145.533 88.8391 146.135 89.114 146.777 89.1898C148.193 89.3803 149.62 89.4677 151.049 89.4513C152.99 89.3264 155.177 86.5866 155.177 86.5866C155.177 86.5866 154.924 83.6127 153.922 83.2537Z" fill="url(#paint29_linear)"/>
<path id="Vector_56" d="M132.144 39.976C132.268 40.0819 132.415 40.157 132.574 40.1949C132.733 40.2329 132.898 40.2328 133.056 40.1945C132.367 38.9858 132.06 37.5942 132.179 36.2059C132.509 36.5728 133.118 36.4752 133.53 36.2059C133.942 35.9366 134.249 35.5268 134.695 35.2849C135.062 35.1021 135.455 34.9796 135.86 34.9219C137.894 34.4995 139.856 33.7831 141.685 32.7949C142.788 32.1978 143.852 31.4992 145.052 31.1245C147.841 30.262 151.029 31.4211 152.932 33.6457C153.279 34.0937 153.648 34.5236 154.039 34.9336C154.38 35.2112 154.703 35.5111 155.006 35.8313C155.685 36.6586 155.72 37.8373 155.631 38.9066C155.4 41.6228 154.589 44.2571 153.254 46.6302L153.394 43.1177C153.417 42.4972 153.305 41.6815 152.695 41.5566C152.198 41.4551 151.775 41.9469 151.565 42.4035C151.246 43.1149 151.135 43.9024 151.243 44.6749C150.396 44.191 149.88 43.305 149.274 42.5362C148.668 41.7674 147.829 41.0414 146.858 41.1117C145.775 41.1937 145.041 42.2006 144.186 42.8796C143.177 43.6684 141.905 44.0386 140.633 43.9139C140.359 43.8474 140.072 43.8474 139.798 43.9139C139.076 44.1871 139.049 44.8622 138.21 44.8115C137.72 44.7842 136.466 43.91 136.004 43.6407C134.426 42.7714 133.097 41.5095 132.144 39.976Z" fill="#3F3D56"/>
<path id="Vector_57" d="M216.408 108.009C216.408 108.009 210.548 112.197 201.476 109.913C192.404 107.63 187.856 106.011 187.856 106.011L177.895 118.261L177.845 118.32L176.637 117.856L172.726 116.361C172.726 116.361 177.068 100.609 179.639 97.8032C180.416 96.9641 183.359 93.2682 187.973 94.4663C193.317 95.8557 203.973 97.4051 211.309 99.0404C217.864 100.496 216.408 108.009 216.408 108.009Z" fill="#446DF6"/>
<path id="Vector_58" d="M216.408 108.009C216.408 108.009 210.548 112.197 201.476 109.913C192.404 107.63 187.856 106.011 187.856 106.011L177.895 118.261L177.845 118.32L176.637 117.856L172.726 116.361C172.726 116.361 177.068 100.609 179.639 97.8032C180.416 96.9641 183.359 93.2682 187.973 94.4663C193.317 95.8557 203.973 97.4051 211.309 99.0404C217.864 100.496 216.408 108.009 216.408 108.009Z" fill="url(#paint30_linear)"/>
<path id="Vector_59" d="M202.431 103.782L201.476 109.913C192.404 107.63 187.856 106.011 187.856 106.011L177.895 118.261L176.637 117.871L186.862 100.699L202.431 103.782Z" fill="url(#paint31_linear)"/>
<path id="Vector_60" d="M211.309 99.0365L166.967 123.101C166.967 123.101 169.748 125.329 170.369 126.395C170.99 127.46 173.806 128.21 173.806 128.21C173.806 128.21 200.093 120.014 202.839 117.575C202.839 117.575 209.441 116.794 212.548 116.267C215.654 115.74 219.118 112.485 220.854 108.009C222.59 103.532 221.876 98.3496 221.876 98.3496L211.324 99.0365H211.309Z" fill="#446DF6"/>
<path id="Vector_61" d="M211.309 99.0365L166.967 123.101C166.967 123.101 169.748 125.329 170.369 126.395C170.99 127.46 173.806 128.21 173.806 128.21C173.806 128.21 200.093 120.014 202.839 117.575C202.839 117.575 209.441 116.794 212.548 116.267C215.654 115.74 219.118 112.485 220.854 108.009C222.59 103.532 221.876 98.3496 221.876 98.3496L211.324 99.0365H211.309Z" fill="url(#paint32_linear)"/>
<path id="Vector_62" d="M167.608 123.628L164.043 125.396L168.439 129.767L172.392 127.73L167.608 123.628Z" fill="url(#paint33_linear)"/>
<path id="Vector_63" d="M164.866 125.396C164.866 125.396 159.953 118.671 158.338 119.327C156.722 119.983 156.229 122.839 156.353 123.23C156.447 123.511 160.749 129.537 162.878 132.507C163.194 132.949 163.665 133.253 164.197 133.359C164.728 133.465 165.28 133.364 165.74 133.076L168.039 131.648L169.068 129.451L164.866 125.396Z" fill="#25233A"/>
<path id="Vector_64" d="M173.126 116.509L171.926 120.408L176.637 117.852L173.126 116.509Z" fill="url(#paint34_linear)"/>
<path id="Vector_65" d="M208.322 100.004L203.107 97.3973C203.107 97.3973 209.647 90.6846 205.227 85.1817C205.227 85.1817 202.338 82.9103 202.851 80.2291C203.177 78.5314 205.293 74.933 206.796 72.525C207.262 71.7782 207.877 71.1359 208.601 70.6383C209.325 70.1408 210.144 69.7986 211.006 69.6331L220.194 67.8651C220.194 67.8651 223.934 68.3217 225.421 73.0597C226.909 77.7976 221.852 98.3496 221.852 98.3496L208.322 100.004Z" fill="#446DF6"/>
<path id="Vector_66" d="M208.322 100.004L203.107 97.3973C203.107 97.3973 209.647 90.6846 205.227 85.1817C205.227 85.1817 202.338 82.9103 202.851 80.2291C203.177 78.5314 205.293 74.933 206.796 72.525C207.262 71.7782 207.877 71.1359 208.601 70.6383C209.325 70.1408 210.144 69.7986 211.006 69.6331L220.194 67.8651C220.194 67.8651 223.934 68.3217 225.421 73.0597C226.909 77.7976 221.852 98.3496 221.852 98.3496L208.322 100.004Z" fill="url(#paint35_linear)"/>
<path id="Vector_67" d="M220.214 67.8768C220.214 67.8768 213.41 75.257 211.006 73.809C210.69 73.6501 210.423 73.4077 210.235 73.1079C210.046 72.8081 209.942 72.4622 209.934 72.1074C209.934 70.8663 211.006 69.6448 211.006 69.6448C211.006 69.6448 212.769 66.0777 209.701 66.5889H209.647C206.505 67.147 205.445 59.482 206.746 54.6777C208.047 49.8734 216.326 53.5966 216.551 55.2475C216.777 56.8984 220.214 67.8768 220.214 67.8768Z" fill="url(#paint36_linear)"/>
<path id="Vector_68" d="M209.138 50.9467C210.035 51.2784 210.501 52.2385 210.998 53.058C212.259 55.148 214.156 56.7749 216.408 57.6984C217.421 58.1121 218.602 58.3658 219.581 57.8741C218.978 56.7756 218.595 55.569 218.454 54.3225C218.419 53.6008 218.335 52.8823 218.202 52.1721C217.674 50.0841 215.709 48.6948 213.744 47.844C212.656 47.3279 211.474 47.046 210.272 47.0166C209.671 47.0056 209.075 47.1243 208.523 47.3646C207.972 47.605 207.478 47.9614 207.076 48.4099C206.619 49.0001 206.322 49.6993 206.214 50.4393C206.082 51.2198 205.868 52.9761 206.784 52.1799C207.549 51.5086 207.767 50.4393 209.138 50.9467Z" fill="#3F3D56"/>
<path id="Vector_69" d="M215.6 60.1962C215.957 59.7591 216.334 59.3415 216.726 58.9356C216.874 58.7834 217.087 58.6234 217.274 58.7209C217.348 58.7703 217.407 58.841 217.441 58.9239C217.579 59.1938 217.655 59.492 217.661 59.7956C217.667 60.0992 217.604 60.4002 217.476 60.6755C217.349 60.9509 217.16 61.1933 216.925 61.3842C216.69 61.575 216.415 61.7094 216.12 61.7768C217.006 61.9407 214.746 66.1479 218.334 68.9345C221.689 71.5376 223.67 69.2272 224.353 69.2779C224.462 67.6349 220.031 61.1953 219.969 59.5483C219.989 59.0383 219.883 58.5311 219.658 58.0731C219.208 57.2925 217.639 56.3051 216.788 56.9764C216.027 57.5657 215.852 59.3337 215.6 60.1962Z" fill="#3F3D56"/>
<path id="Vector_70" d="M225.503 71.7522C225.282 71.3648 224.965 71.0414 224.583 70.8133C224.201 70.5852 223.767 70.4602 223.323 70.4504C222.878 70.4406 222.439 70.5463 222.047 70.7573C221.656 70.9683 221.325 71.2774 221.087 71.6547C220.62 72.3326 220.3 73.1013 220.146 73.9112C219.992 74.7211 220.009 75.5544 220.194 76.3575C221.204 80.4788 229.903 89.6932 229.903 89.6932L236.505 101.686C236.505 101.686 234.874 105.726 237.476 102.592C238.761 101.05 241.802 100.804 243.476 100.793C243.869 100.794 244.249 100.644 244.537 100.375C244.826 100.105 245.001 99.7356 245.029 99.3408C245.029 99.1067 244.982 98.9506 244.804 98.9506C244.202 99.013 240.586 98.5876 240.586 98.5876L237.359 99.3447C237.359 99.3447 233.118 87.4452 232.916 87.2267C232.715 87.0081 228.87 77.6103 225.503 71.7522Z" fill="url(#paint37_linear)"/>
<path id="Vector_71" d="M178.058 82.5902L183.658 90.3958L191.324 91.3402C191.324 91.3402 197.421 87.5975 198.652 86.9574C199.883 86.3174 202.431 85.1661 202.431 85.1661L190.245 82.5746L184.629 88.9673L183.421 89.4981L178.458 82.5746L178.058 82.5902Z" fill="#446DF6"/>
<path id="Vector_72" d="M178.058 82.5902L183.658 90.3958L191.324 91.3402C191.324 91.3402 197.421 87.5975 198.652 86.9574C199.883 86.3174 202.431 85.1661 202.431 85.1661L190.245 82.5746L184.629 88.9673L183.421 89.4981L178.458 82.5746L178.058 82.5902Z" fill="url(#paint38_linear)"/>
<path id="Vector_73" d="M179.95 80.6974L183.856 88.3L184.101 88.8581L184.629 88.979L181.53 80.6974H179.95Z" fill="#446DF6"/>
<path id="Vector_74" d="M178.058 81.4897L183.658 89.2015H184.039L179.949 81.4897H178.058Z" fill="#446DF6"/>
<path id="Vector_75" d="M181.53 79.9247L184.629 87.8629L188.179 81.7238L181.53 79.9247Z" fill="#446DF6"/>
<path id="Vector_76" d="M179.95 80.6974L183.856 88.3L184.101 88.8581L184.629 88.979L181.53 80.6974H179.95Z" fill="url(#paint39_linear)"/>
<path id="Vector_77" d="M178.058 81.4897L183.658 89.2015H184.039L179.949 81.4897H178.058Z" fill="url(#paint40_linear)"/>
<path id="Vector_78" d="M181.53 79.9247L184.629 87.8629L188.179 81.7238L181.53 79.9247Z" fill="url(#paint41_linear)"/>
<path id="Vector_79" d="M170.369 126.395C170.369 126.395 193.185 118.199 202.454 114.179C204.214 113.41 206.059 112.853 207.95 112.521C210.229 112.13 213.452 111.35 215.6 109.882C219.227 107.4 221.86 102.373 221.86 102.373C221.86 102.373 221.957 113.668 212.54 116.267L202.831 117.575C202.831 117.575 199.445 119.557 193.274 121.715C187.103 123.874 173.798 128.21 173.798 128.21C173.798 128.21 171.165 127.339 170.983 127.152C170.8 126.965 170.369 126.395 170.369 126.395Z" fill="url(#paint42_linear)"/>
<path id="Vector_80" d="M209.934 72.1074C209.934 70.8663 211.006 69.6448 211.006 69.6448C211.006 69.6448 212.769 66.0776 209.701 66.5889C214.691 65.7654 214.085 62.4715 215.262 65.4649C217.235 70.4839 210.171 72.0762 209.934 72.1074Z" fill="url(#paint43_linear)"/>
</g>
</g>
<defs>
<linearGradient id="paint0_linear" x1="93.9767" y1="66.7645" x2="112.986" y2="66.7645" gradientUnits="userSpaceOnUse">
<stop stop-color="#ECC4D7"/>
<stop offset="0.42" stop-color="#EFD4D1"/>
<stop offset="1" stop-color="#F2EAC9"/>
</linearGradient>
<linearGradient id="paint1_linear" x1="15.0602" y1="148.262" x2="309.569" y2="148.262" gradientUnits="userSpaceOnUse">
<stop stop-color="#68E1FD"/>
<stop offset="1" stop-color="#69B9EB"/>
</linearGradient>
<linearGradient id="paint2_linear" x1="168.746" y1="137.424" x2="209.147" y2="221.338" gradientUnits="userSpaceOnUse">
<stop offset="0.01" stop-color="#3C3A52" stop-opacity="0"/>
<stop offset="0.86"/>
</linearGradient>
<linearGradient id="paint3_linear" x1="162.117" y1="106.159" x2="177.046" y2="181.841" gradientUnits="userSpaceOnUse">
<stop offset="0.01" stop-color="white" stop-opacity="0"/>
<stop offset="0.99" stop-color="white"/>
</linearGradient>
<linearGradient id="paint4_linear" x1="13235.4" y1="6615.94" x2="12939.9" y2="7442.5" gradientUnits="userSpaceOnUse">
<stop stop-color="#ECC4D7"/>
<stop offset="0.42" stop-color="#EFD4D1"/>
<stop offset="1" stop-color="#F2EAC9"/>
</linearGradient>
<linearGradient id="paint5_linear" x1="139.499" y1="73.7856" x2="131.428" y2="74.7557" gradientUnits="userSpaceOnUse">
<stop offset="0.01" stop-color="white" stop-opacity="0"/>
<stop offset="0.33" stop-color="white" stop-opacity="0.36"/>
<stop offset="0.99" stop-color="white"/>
</linearGradient>
<linearGradient id="paint6_linear" x1="147.864" y1="53.3273" x2="176.491" y2="61.4484" gradientUnits="userSpaceOnUse">
<stop offset="0.01" stop-color="#3C3A52" stop-opacity="0"/>
<stop offset="1"/>
</linearGradient>
<linearGradient id="paint7_linear" x1="3568.51" y1="2502.87" x2="3561.64" y2="2361.64" gradientUnits="userSpaceOnUse">
<stop stop-color="#ECC4D7"/>
<stop offset="0.42" stop-color="#EFD4D1"/>
<stop offset="1" stop-color="#F2EAC9"/>
</linearGradient>
<linearGradient id="paint8_linear" x1="7465.79" y1="9001.85" x2="10865.8" y2="11403.2" gradientUnits="userSpaceOnUse">
<stop offset="0.01" stop-color="#3C3A52" stop-opacity="0"/>
<stop offset="1"/>
</linearGradient>
<linearGradient id="paint9_linear" x1="18134.2" y1="24174.4" x2="202246" y2="24174.4" gradientUnits="userSpaceOnUse">
<stop offset="0.01" stop-color="#363355" stop-opacity="0"/>
<stop offset="0.8599" stop-color="#1B1A2B" stop-opacity="0.494363"/>
<stop offset="0.86"/>
</linearGradient>
<linearGradient id="paint10_linear" x1="4127.99" y1="4963.2" x2="4151.04" y2="5322.34" gradientUnits="userSpaceOnUse">
<stop offset="0.01" stop-color="white" stop-opacity="0"/>
<stop offset="0.99" stop-color="white"/>
</linearGradient>
<linearGradient id="paint11_linear" x1="15256.6" y1="8404.53" x2="15267.9" y2="10405" gradientUnits="userSpaceOnUse">
<stop offset="0.01" stop-color="white" stop-opacity="0"/>
<stop offset="0.33" stop-color="white" stop-opacity="0.36"/>
<stop offset="0.99" stop-color="white"/>
</linearGradient>
<linearGradient id="paint12_linear" x1="13050.8" y1="8245.32" x2="23662.1" y2="8245.32" gradientUnits="userSpaceOnUse">
<stop offset="0.01" stop-color="white" stop-opacity="0"/>
<stop offset="0.99" stop-color="white"/>
</linearGradient>
<linearGradient id="paint13_linear" x1="14432.7" y1="4140.35" x2="14246.9" y2="5730.22" gradientUnits="userSpaceOnUse">
<stop offset="0.01" stop-color="#3C3A52" stop-opacity="0"/>
<stop offset="0.86"/>
</linearGradient>
<linearGradient id="paint14_linear" x1="21169.7" y1="2868.07" x2="24267.8" y2="2868.07" gradientUnits="userSpaceOnUse">
<stop offset="0.01" stop-color="#3C3A52" stop-opacity="0"/>
<stop offset="0.86"/>
</linearGradient>
<linearGradient id="paint15_linear" x1="6506.76" y1="8193.85" x2="7530.79" y2="8193.85" gradientUnits="userSpaceOnUse">
<stop offset="0.01" stop-color="#3C3A52" stop-opacity="0"/>
<stop offset="1"/>
</linearGradient>
<linearGradient id="paint16_linear" x1="6345.79" y1="7875.64" x2="7317.4" y2="8589.12" gradientUnits="userSpaceOnUse">
<stop offset="0.01" stop-color="#3C3A52" stop-opacity="0"/>
<stop offset="1"/>
</linearGradient>
<linearGradient id="paint17_linear" x1="4054.09" y1="10267.5" x2="7059.02" y2="12002" gradientUnits="userSpaceOnUse">
<stop offset="0.01" stop-color="#3C3A52" stop-opacity="0"/>
<stop offset="1"/>
</linearGradient>
<linearGradient id="paint18_linear" x1="11414.6" y1="11525.6" x2="21964.1" y2="11525.6" gradientUnits="userSpaceOnUse">
<stop offset="0.01" stop-color="white" stop-opacity="0"/>
<stop offset="0.99" stop-color="white"/>
</linearGradient>
<linearGradient id="paint19_linear" x1="7293.78" y1="9472.84" x2="10623" y2="8879.21" gradientUnits="userSpaceOnUse">
<stop offset="0.01" stop-color="#3C3A52" stop-opacity="0"/>
<stop offset="1"/>
</linearGradient>
<linearGradient id="paint20_linear" x1="2613.03" y1="2417.81" x2="2799.76" y2="2417.81" gradientUnits="userSpaceOnUse">
<stop stop-color="#ECC4D7"/>
<stop offset="0.42" stop-color="#EFD4D1"/>
<stop offset="1" stop-color="#F2EAC9"/>
</linearGradient>
<linearGradient id="paint21_linear" x1="484.585" y1="965.98" x2="549.182" y2="1018.97" gradientUnits="userSpaceOnUse">
<stop stop-color="#ECC4D7"/>
<stop offset="0.42" stop-color="#EFD4D1"/>
<stop offset="1" stop-color="#F2EAC9"/>
</linearGradient>
<linearGradient id="paint22_linear" x1="1626.68" y1="2796.04" x2="1679.25" y2="2796.04" gradientUnits="userSpaceOnUse">
<stop stop-color="#ECC4D7"/>
<stop offset="0.42" stop-color="#EFD4D1"/>
<stop offset="1" stop-color="#F2EAC9"/>
</linearGradient>
<linearGradient id="paint23_linear" x1="1854.03" y1="1873.9" x2="1911.55" y2="1873.9" gradientUnits="userSpaceOnUse">
<stop stop-color="#ECC4D7"/>
<stop offset="0.42" stop-color="#EFD4D1"/>
<stop offset="1" stop-color="#F2EAC9"/>
</linearGradient>
<linearGradient id="paint24_linear" x1="2474.77" y1="1546.23" x2="2607.25" y2="1546.23" gradientUnits="userSpaceOnUse">
<stop stop-color="#ECC4D7"/>
<stop offset="0.42" stop-color="#EFD4D1"/>
<stop offset="1" stop-color="#F2EAC9"/>
</linearGradient>
<linearGradient id="paint25_linear" x1="14451.6" y1="9267.25" x2="15340" y2="7366.22" gradientUnits="userSpaceOnUse">
<stop offset="0.01" stop-color="white" stop-opacity="0"/>
<stop offset="0.99" stop-color="white"/>
</linearGradient>
<linearGradient id="paint26_linear" x1="151.247" y1="46.8058" x2="150.325" y2="54.8367" gradientUnits="userSpaceOnUse">
<stop stop-color="#ECC4D7"/>
<stop offset="0.42" stop-color="#EFD4D1"/>
<stop offset="0.59" stop-color="#F0DACE"/>
<stop offset="1" stop-color="#F2EAC9"/>
</linearGradient>
<linearGradient id="paint27_linear" x1="14880.6" y1="-6951.1" x2="15557.6" y2="-7082.28" gradientUnits="userSpaceOnUse">
<stop stop-color="#ECC4D7"/>
<stop offset="0.42" stop-color="#EFD4D1"/>
<stop offset="1" stop-color="#F2EAC9"/>
</linearGradient>
<linearGradient id="paint28_linear" x1="11505.1" y1="8364.03" x2="15387.7" y2="14097.6" gradientUnits="userSpaceOnUse">
<stop offset="0.01" stop-color="#3C3A52" stop-opacity="0"/>
<stop offset="1"/>
</linearGradient>
<linearGradient id="paint29_linear" x1="4262.37" y1="2135.32" x2="4579.75" y2="2135.32" gradientUnits="userSpaceOnUse">
<stop stop-color="#ECC4D7"/>
<stop offset="0.42" stop-color="#EFD4D1"/>
<stop offset="1" stop-color="#F2EAC9"/>
</linearGradient>
<linearGradient id="paint30_linear" x1="20699.5" y1="7579.87" x2="21637.7" y2="10171.8" gradientUnits="userSpaceOnUse">
<stop offset="0.01" stop-color="#3C3A52" stop-opacity="0"/>
<stop offset="1"/>
</linearGradient>
<linearGradient id="paint31_linear" x1="11908.9" y1="6409.82" x2="13622.1" y2="6409.82" gradientUnits="userSpaceOnUse">
<stop offset="0.01" stop-color="#3C3A52" stop-opacity="0"/>
<stop offset="1"/>
</linearGradient>
<linearGradient id="paint32_linear" x1="27100.1" y1="10374.4" x2="27940.1" y2="12864" gradientUnits="userSpaceOnUse">
<stop offset="0.01" stop-color="#3C3A52" stop-opacity="0"/>
<stop offset="1"/>
</linearGradient>
<linearGradient id="paint33_linear" x1="3690.96" y1="2116.61" x2="3870.48" y2="2116.61" gradientUnits="userSpaceOnUse">
<stop stop-color="#ECC4D7"/>
<stop offset="0.42" stop-color="#EFD4D1"/>
<stop offset="1" stop-color="#F2EAC9"/>
</linearGradient>
<linearGradient id="paint34_linear" x1="2257.38" y1="1299.93" x2="2314.52" y2="1299.93" gradientUnits="userSpaceOnUse">
<stop stop-color="#ECC4D7"/>
<stop offset="0.42" stop-color="#EFD4D1"/>
<stop offset="1" stop-color="#F2EAC9"/>
</linearGradient>
<linearGradient id="paint35_linear" x1="11929.3" y1="9014.14" x2="17179.5" y2="10457.5" gradientUnits="userSpaceOnUse">
<stop offset="0.01" stop-color="white" stop-opacity="0"/>
<stop offset="0.99" stop-color="white"/>
</linearGradient>
<linearGradient id="paint36_linear" x1="7645.92" y1="5270.11" x2="8151.46" y2="5270.11" gradientUnits="userSpaceOnUse">
<stop stop-color="#ECC4D7"/>
<stop offset="0.42" stop-color="#EFD4D1"/>
<stop offset="1" stop-color="#F2EAC9"/>
</linearGradient>
<linearGradient id="paint37_linear" x1="14377.7" y1="10136.5" x2="15986.1" y2="10136.5" gradientUnits="userSpaceOnUse">
<stop stop-color="#ECC4D7"/>
<stop offset="0.42" stop-color="#EFD4D1"/>
<stop offset="1" stop-color="#F2EAC9"/>
</linearGradient>
<linearGradient id="paint38_linear" x1="11789.5" y1="2709.63" x2="13513.1" y2="3384.41" gradientUnits="userSpaceOnUse">
<stop offset="0.01" stop-color="#3C3A52" stop-opacity="0"/>
<stop offset="1"/>
</linearGradient>
<linearGradient id="paint39_linear" x1="2348.34" y1="1880.96" x2="2404.73" y2="1880.96" gradientUnits="userSpaceOnUse">
<stop offset="0.01" stop-color="white" stop-opacity="0"/>
<stop offset="0.99" stop-color="white"/>
</linearGradient>
<linearGradient id="paint40_linear" x1="2920.17" y1="1767.92" x2="3012.27" y2="1767.92" gradientUnits="userSpaceOnUse">
<stop offset="0.01" stop-color="white" stop-opacity="0"/>
<stop offset="0.99" stop-color="white"/>
</linearGradient>
<linearGradient id="paint41_linear" x1="3289.33" y1="1786.33" x2="3403.16" y2="1786.33" gradientUnits="userSpaceOnUse">
<stop offset="0.01" stop-color="white" stop-opacity="0"/>
<stop offset="0.99" stop-color="white"/>
</linearGradient>
<linearGradient id="paint42_linear" x1="22759.6" y1="9769.52" x2="29586.8" y2="9769.52" gradientUnits="userSpaceOnUse">
<stop offset="0.01" stop-color="#3C3A52" stop-opacity="0"/>
<stop offset="1"/>
</linearGradient>
<linearGradient id="paint43_linear" x1="3491.15" y1="2018.85" x2="3506.47" y2="2011.93" gradientUnits="userSpaceOnUse">
<stop stop-color="#ECC4D7"/>
<stop offset="0.42" stop-color="#EFD4D1"/>
<stop offset="1" stop-color="#F2EAC9"/>
</linearGradient>
<clipPath id="clip0">
<rect width="320" height="201" fill="white"/>
</clipPath>
</defs>
</svg>
