<svg width="30" height="33" viewBox="0 0 30 33" fill="none" xmlns="http://www.w3.org/2000/svg">
<path d="M15 0C12.2917 0 9.94792 0.816406 7.96875 2.44922C5.98958 4.08203 5 6.01562 5 8.25V12.375C3.59375 12.375 2.40885 12.7725 1.44531 13.5674C0.481771 14.3623 0 15.3398 0 16.5V28.875C0 30.0352 0.481771 31.0127 1.44531 31.8076C2.40885 32.6025 3.59375 33 5 33H25C26.4062 33 27.5911 32.6025 28.5547 31.8076C29.5182 31.0127 30 30.0352 30 28.875V16.5C30 15.3398 29.5182 14.3623 28.5547 13.5674C27.5911 12.7725 26.4062 12.375 25 12.375V8.25C25 6.01562 24.0104 4.08203 22.0312 2.44922C20.0521 0.816406 17.7083 0 15 0ZM26.6406 16.5V28.875C26.6406 29.7773 26.0938 30.2285 25 30.2285H5C3.90625 30.2285 3.35938 29.7773 3.35938 28.875V16.5C3.35938 15.5977 3.90625 15.1465 5 15.1465H25C26.0938 15.1465 26.6406 15.5977 26.6406 16.5ZM8.35938 12.375V8.25C8.35938 6.74609 9.01042 5.45703 10.3125 4.38281C11.6146 3.30859 13.1771 2.77148 15 2.77148C16.8229 2.77148 18.3854 3.30859 19.6875 4.38281C20.9896 5.45703 21.6406 6.74609 21.6406 8.25V12.375H8.35938ZM15 16.5C13.5938 16.5 12.4089 16.8975 11.4453 17.6924C10.4818 18.4873 10 19.4648 10 20.625C10 21.4844 10.3125 22.2686 10.9375 22.9775C11.5625 23.6865 12.3698 24.1914 13.3594 24.4922V26.1035C13.3594 27.0488 13.9062 27.5215 15 27.5215C16.0938 27.5215 16.6406 27.0488 16.6406 26.1035V24.4922C18.8802 23.8477 20 22.5586 20 20.625C20 19.4648 19.5182 18.4873 18.5547 17.6924C17.5911 16.8975 16.4062 16.5 15 16.5ZM15 21.9785C13.9062 21.9785 13.3594 21.5273 13.3594 20.625C13.3594 19.7227 13.9062 19.2715 15 19.2715C16.0938 19.2715 16.6406 19.7227 16.6406 20.625C16.6406 21.5273 16.0938 21.9785 15 21.9785Z" fill="#F4B844"/>
</svg>
