<svg width="70" height="70" viewBox="0 0 70 70" fill="none" xmlns="http://www.w3.org/2000/svg">
<g id="Group 2">
<path id="Vector" d="M50.4139 49.8641H19.5861V11.6496H31.6249V15.0028H31.5586C30.8415 15.0028 30.1539 15.3086 29.6468 15.8528C29.1398 16.3971 28.855 17.1353 28.855 17.905C28.855 18.6747 29.1398 19.4129 29.6468 19.9572C30.1539 20.5014 30.8415 20.8072 31.5586 20.8072H31.6249V27.7967H38.3042V31.7921H35.5258C34.6178 31.7921 33.7188 31.984 32.88 32.357C32.0412 32.7299 31.279 33.2766 30.637 33.9657C29.995 34.6549 29.4858 35.473 29.1383 36.3735C28.7909 37.2739 28.6121 38.2389 28.6121 39.2135V43.6194H59.2733V39.2135C59.2734 38.2389 59.0946 37.2739 58.7471 36.3735C58.3997 35.473 57.8904 34.6549 57.2484 33.9657C56.6064 33.2766 55.8443 32.7299 55.0055 32.357C54.1666 31.984 53.2676 31.7921 52.3597 31.7921H49.5813V27.7967H56.2606V20.8072H56.3269C57.0439 20.8072 57.7316 20.5014 58.2386 19.9572C58.7457 19.4129 59.0305 18.6747 59.0305 17.905C59.0305 17.1353 58.7457 16.3971 58.2386 15.8528C57.7316 15.3086 57.0439 15.0028 56.3269 15.0028H56.2606V11.6496H68.7634V58.8264L57.1117 49.8641H50.4139Z" fill="#446DF6"/>
<path id="Vector_2" d="M31.6249 15.0028V20.8072H31.5586C30.8415 20.8072 30.1538 20.5014 29.6468 19.9572C29.1398 19.4129 28.8549 18.6747 28.8549 17.905C28.8549 17.1353 29.1398 16.3971 29.6468 15.8528C30.1538 15.3085 30.8415 15.0028 31.5586 15.0028H31.6249ZM58.2387 15.8535C58.6165 16.2595 58.8738 16.7765 58.9779 17.3394C59.0821 17.9022 59.0285 18.4856 58.8239 19.0157C58.6192 19.5459 58.2728 19.999 57.8284 20.3179C57.3839 20.6367 56.8614 20.807 56.3268 20.8072H56.2605V15.0028H56.3268C56.682 15.0023 57.0338 15.0772 57.3619 15.2232C57.69 15.3692 57.988 15.5834 58.2387 15.8535Z" fill="#F4B844"/>
<path id="Vector_3" d="M43.9427 6.04375C45.1562 6.04375 46.1399 4.9878 46.1399 3.68523C46.1399 2.38266 45.1562 1.32672 43.9427 1.32672C42.7293 1.32672 41.7456 2.38266 41.7456 3.68523C41.7456 4.9878 42.7293 6.04375 43.9427 6.04375Z" fill="#F4B844"/>
<path id="Vector_4" d="M50.625 13.394H47.1466V17.1296H50.625V13.394Z" fill="#F4B844"/>
<path id="Vector_5" d="M40.7388 13.394H37.2604V17.1296H40.7388V13.394Z" fill="#F4B844"/>
<path id="Vector_6" d="M50.0639 20.8634H37.8216V24.4269H50.0639V20.8634Z" fill="#F4B844"/>
<path id="Vector_7" d="M49.5813 31.6961V31.7921H38.3042V31.6961V27.8728V27.7967H49.5813V31.6961Z" fill="#F4B844"/>
<path id="Vector_8" d="M51.7183 37.7538H36.1672V43.6194H51.7183V37.7538Z" fill="#F4B844"/>
<path id="Vector_9" d="M59.2734 39.2136V43.6195H51.7183V37.7538H36.1672V43.6195H28.6122V39.2136C28.6121 38.239 28.7909 37.2739 29.1384 36.3735C29.4858 35.4731 29.9951 34.6549 30.6371 33.9658C31.2791 33.2766 32.0412 32.73 32.88 32.357C33.7189 31.9841 34.6179 31.7921 35.5258 31.7921H52.3597C53.2676 31.7921 54.1667 31.9841 55.0055 32.357C55.8443 32.73 56.6065 33.2766 57.2485 33.9658C57.8905 34.6549 58.3997 35.4731 58.7472 36.3735C59.0946 37.2739 59.2734 38.239 59.2734 39.2136ZM31.6249 11.6496V9.21332H56.2606V27.7967H31.6249V11.6496ZM50.6251 17.1296V13.3941H47.1467V17.1296H50.6251ZM50.0639 24.427V20.8635H37.8216V24.427H50.0639ZM40.7388 17.1296V13.3941H37.2604V17.1296H40.7388Z" fill="#FEDB41"/>
<path id="Vector_10" d="M50.4138 49.8641V59.712H12.8883L1.23654 68.676V21.4991H19.526H19.5861V49.8641H50.4138Z" fill="#1B998B"/>
<path id="Vector_11" d="M68.7634 10.3404H57.511V9.21326C57.5083 8.85692 57.3761 8.5158 57.1425 8.26259C56.909 8.00938 56.5925 7.86411 56.2606 7.85774H45.022V7.18014C45.7825 6.90983 46.4309 6.36242 46.8549 5.63277C47.2789 4.90312 47.4516 4.03724 47.3433 3.1852C47.2349 2.33316 46.8523 1.54867 46.2616 0.967707C45.671 0.386742 44.9096 0.0459206 44.1094 0.00431588C43.3093 -0.0372888 42.5208 0.222946 41.8806 0.739915C41.2404 1.25688 40.7889 1.998 40.6044 2.83481C40.4198 3.67162 40.5138 4.55137 40.8701 5.32159C41.2264 6.0918 41.8225 6.70393 42.5551 7.05187V7.85774H31.6249C31.293 7.86411 30.9765 8.00938 30.7429 8.26259C30.5094 8.5158 30.3771 8.85692 30.3745 9.21326V10.3404H19.5861C19.4246 10.3386 19.2644 10.3712 19.1147 10.4361C18.9649 10.501 18.8286 10.5971 18.7136 10.7187C18.5985 10.8404 18.507 10.9852 18.4443 11.145C18.3815 11.3047 18.3488 11.4762 18.348 11.6496V20.1055H1.23656C0.555066 20.1055 0 20.7675 0 21.499V68.6759C0.000531079 69.0273 0.130953 69.3641 0.362627 69.6124C0.594302 69.8606 0.908288 70 1.23564 70C1.49584 69.991 1.74706 69.8957 1.95476 69.7272L13.2846 60.9863H50.4139C50.5736 60.992 50.7328 60.9632 50.882 60.9019C51.0312 60.8405 51.1676 60.7477 51.2829 60.629C51.3983 60.5102 51.4903 60.3679 51.5537 60.2105C51.6171 60.053 51.6505 59.8835 51.652 59.7119V51.2213H56.7154L68.0449 59.9193C68.2552 60.0781 68.5066 60.1618 68.7636 60.1588C69.0916 60.1563 69.4054 60.0149 69.6369 59.7655C69.8685 59.516 69.9989 59.1786 70 58.8264V11.6496C69.9994 11.4763 69.9668 11.3049 69.9043 11.1451C69.8417 10.9854 69.7503 10.8405 69.6354 10.7189C69.5205 10.5972 69.3843 10.5011 69.2346 10.4362C69.085 10.3712 68.9249 10.3387 68.7634 10.3404ZM57.511 16.9485C57.6901 17.2326 57.7945 17.5634 57.8132 17.9058C57.7969 18.2479 57.6922 18.5783 57.511 18.8602V16.9485ZM43.9427 2.6508C44.1333 2.6508 44.3196 2.71147 44.4781 2.82513C44.6366 2.9388 44.7601 3.10036 44.833 3.28938C44.906 3.47839 44.9251 3.68638 44.8879 3.88704C44.8507 4.08771 44.7589 4.27202 44.6241 4.41669C44.4894 4.56136 44.3177 4.65988 44.1307 4.6998C43.9438 4.73971 43.75 4.71922 43.574 4.64093C43.3979 4.56264 43.2474 4.43005 43.1415 4.25994C43.0356 4.08983 42.9791 3.88983 42.9791 3.68524C42.9794 3.41098 43.081 3.14805 43.2616 2.95412C43.4423 2.76019 43.6872 2.65111 43.9427 2.6508ZM32.8414 11.7497C32.8414 11.7166 32.846 11.6835 32.846 11.6496C32.846 11.6156 32.8414 11.5834 32.8414 11.5511V10.5059H55.0441V26.3948H32.8414V11.7497ZM51.7183 36.4909H36.1672C36.0117 36.4854 35.8569 36.5144 35.7123 36.576C35.5678 36.6377 35.4367 36.7306 35.3271 36.8492C35.2176 36.9677 35.132 37.1092 35.0757 37.2648C35.0194 37.4205 34.9936 37.5869 35 37.7537V42.2837H29.9119V39.2135C29.9065 38.4202 30.0479 37.6337 30.3281 36.8995C30.6082 36.1654 31.0214 35.4983 31.5437 34.9371C32.066 34.3758 32.687 33.9315 33.3706 33.63C34.0541 33.3285 34.7867 33.1758 35.5258 33.1807H52.3597C53.0987 33.1758 53.8313 33.3285 54.5149 33.63C55.1985 33.9315 55.8195 34.3758 56.3418 34.9371C56.8641 35.4983 57.2773 36.1654 57.5574 36.8995C57.8375 37.6337 57.979 38.4202 57.9736 39.2135V42.2837H52.8855V37.7537C52.8918 37.5869 52.8661 37.4205 52.8098 37.2648C52.7535 37.1092 52.6679 36.9677 52.5584 36.8492C52.4488 36.7306 52.3177 36.6377 52.1731 36.576C52.0286 36.5144 51.8737 36.4854 51.7183 36.4909ZM50.4185 39.1391V42.2837H37.467V39.1391H50.4185ZM48.4141 30.5326H39.4714V29.043H48.4141V30.5326ZM49.185 58.3382H12.8883C12.6278 58.347 12.3763 58.4423 12.1683 58.6108L2.46696 66.0979V22.7536H18.348V49.8641C18.3479 50.2192 18.4775 50.5602 18.709 50.814C18.9405 51.0677 19.2554 51.2139 19.5861 51.2213H49.185V58.3382ZM67.533 56.2488L57.8317 48.8048C57.6203 48.6484 57.3684 48.5673 57.1117 48.5731H20.815V12.9885H30.3745V13.8672C29.7649 14.0674 29.2119 14.4284 28.766 14.9172C28.3989 15.3087 28.1077 15.7743 27.9092 16.2873C27.7107 16.8003 27.6089 17.3504 27.6096 17.9058C27.6216 18.8038 27.8944 19.6754 28.3901 20.3989C28.8857 21.1224 29.5795 21.6617 30.3745 21.9416V27.7967C30.3745 28.5281 30.9437 29.043 31.6249 29.043H37.0044V30.5326H35.5258C34.4629 30.528 33.4096 30.7494 32.4269 31.1841C31.4441 31.6188 30.5513 32.2582 29.8 33.0653C29.0487 33.8724 28.4538 34.8313 28.0495 35.8865C27.6453 36.9418 27.4398 38.0726 27.4449 39.2135V43.6194C27.4449 44.3506 27.9309 44.9319 28.6121 44.9319H59.2733C59.9545 44.9319 60.4405 44.3506 60.4405 43.6194V39.2135C60.4456 38.0726 60.2401 36.9418 59.8359 35.8865C59.4317 34.8313 58.8368 33.8724 58.0855 33.0653C57.3341 32.2582 56.4413 31.6188 55.4586 31.1841C54.4758 30.7494 53.4226 30.528 52.3597 30.5326H50.8811V29.043H56.2606C56.9418 29.043 57.511 28.5281 57.511 27.7967V21.9416C58.3054 21.6614 58.9984 21.1218 59.4932 20.3983C59.988 19.6747 60.2599 18.8033 60.2709 17.9058C60.2733 17.351 60.1731 16.8011 59.976 16.2881C59.779 15.7752 59.4891 15.3092 59.1232 14.9174C58.6759 14.4283 58.1216 14.0673 57.511 13.8672V12.9885H67.533V56.2488ZM30.3745 16.9484V18.8602C30.1932 18.5783 30.0886 18.2479 30.0722 17.9058C30.091 17.5633 30.1954 17.2325 30.3745 16.9484Z" fill="#083863"/>
<path id="Vector_12" d="M49.956 19.6089H37.7754C37.4482 19.6089 37.1345 19.7484 36.9031 19.9967C36.6718 20.2451 36.5419 20.5818 36.5419 20.933V24.5742C36.5419 24.9254 36.6718 25.2622 36.9031 25.5105C37.1345 25.7588 37.4482 25.8983 37.7754 25.8983H49.956C50.2831 25.8983 50.5968 25.7588 50.8282 25.5105C51.0595 25.2622 51.1894 24.9254 51.1894 24.5742V20.933C51.1894 20.5818 51.0595 20.2451 50.8282 19.9967C50.5968 19.7484 50.2831 19.6089 49.956 19.6089ZM48.8767 23.0846H39.0088V22.2571H48.8767V23.0846ZM40.8591 18.4504C41.1862 18.4504 41.4999 18.3109 41.7313 18.0625C41.9626 17.8142 42.0925 17.4775 42.0925 17.1263V13.3196C42.0925 12.9684 41.9626 12.6316 41.7313 12.3833C41.4999 12.135 41.1862 11.9955 40.8591 11.9955H37.3128C36.9857 11.9955 36.6719 12.135 36.4406 12.3833C36.2093 12.6316 36.0793 12.9684 36.0793 13.3196V17.1263C36.0793 17.4775 36.2093 17.8142 36.4406 18.0625C36.6719 18.3109 36.9857 18.4504 37.3128 18.4504H40.8591ZM38.5463 14.6436H39.4714V15.8022H38.5463V14.6436ZM50.7269 11.9955H47.1806C46.8535 11.9955 46.5398 12.135 46.3084 12.3833C46.0771 12.6316 45.9472 12.9684 45.9472 13.3196V17.1263C45.9472 17.4775 46.0771 17.8142 46.3084 18.0625C46.5398 18.3109 46.8535 18.4504 47.1806 18.4504H50.7269C51.054 18.4504 51.3678 18.3109 51.5991 18.0625C51.8304 17.8142 51.9604 17.4775 51.9604 17.1263V13.3196C51.9604 12.9684 51.8304 12.6316 51.5991 12.3833C51.3678 12.135 51.054 11.9955 50.7269 11.9955ZM49.3392 15.8022H48.4141V14.6436H49.3392V15.8022Z" fill="#083863"/>
</g>
</svg>
