<svg width="40" height="40" viewBox="0 0 40 40" fill="none" xmlns="http://www.w3.org/2000/svg">
<path d="M20 4C17.8783 4 15.8434 4.84285 14.3431 6.34315C12.8429 7.84344 12 9.87827 12 12C12 14.1217 12.8429 16.1566 14.3431 17.6569C15.8434 19.1571 17.8783 20 20 20C22.1217 20 24.1566 19.1571 25.6569 17.6569C27.1571 16.1566 28 14.1217 28 12C28 9.87827 27.1571 7.84344 25.6569 6.34315C24.1566 4.84285 22.1217 4 20 4ZM14 12C14 10.4087 14.6321 8.88258 15.7574 7.75736C16.8826 6.63214 18.4087 6 20 6C21.5913 6 23.1174 6.63214 24.2426 7.75736C25.3679 8.88258 26 10.4087 26 12C26 13.5913 25.3679 15.1174 24.2426 16.2426C23.1174 17.3679 21.5913 18 20 18C18.4087 18 16.8826 17.3679 15.7574 16.2426C14.6321 15.1174 14 13.5913 14 12V12ZM10.018 22C9.49127 21.9979 8.96931 22.0998 8.48205 22.2998C7.99479 22.4999 7.55181 22.7942 7.17852 23.1658C6.80523 23.5374 6.50897 23.9791 6.30673 24.4654C6.1045 24.9518 6.00026 25.4733 6 26C6 29.382 7.666 31.932 10.27 33.594C12.426 34.968 15.214 35.734 18.25 35.942L18.85 33.972C15.86 33.828 13.246 33.12 11.346 31.906C9.246 30.566 8 28.62 8 26C8 24.894 8.896 24 10.018 24H19.198C19.564 23.284 20.006 22.614 20.514 22H10.018ZM38 29C38.0003 30.5665 37.5917 32.106 36.8146 33.4662C36.0375 34.8264 34.9188 35.9603 33.5692 36.7556C32.2196 37.5509 30.6857 37.9801 29.1193 38.0009C27.5529 38.0217 26.0082 37.6332 24.638 36.874L21.058 37.962C20.9164 38.0042 20.7659 38.0073 20.6226 37.9711C20.4794 37.9348 20.3485 37.8605 20.244 37.756C20.1395 37.6515 20.0652 37.5206 20.0289 37.3774C19.9927 37.2341 19.9958 37.0837 20.038 36.942L21.126 33.364C20.4608 32.1624 20.0795 30.8245 20.0111 29.4528C19.9428 28.081 20.1894 26.7119 20.7319 25.4501C21.2744 24.1884 22.0984 23.0675 23.141 22.1734C24.1835 21.2793 25.4169 20.6357 26.7465 20.2918C28.0762 19.9479 29.467 19.9129 30.8123 20.1894C32.1576 20.466 33.4217 21.0468 34.5079 21.8873C35.5941 22.7278 36.4735 23.8058 37.0788 25.0387C37.6841 26.2715 37.9992 27.6266 38 29V29ZM25 26C24.7348 26 24.4804 26.1054 24.2929 26.2929C24.1054 26.4804 24 26.7348 24 27C24 27.2652 24.1054 27.5196 24.2929 27.7071C24.4804 27.8946 24.7348 28 25 28H33C33.2652 28 33.5196 27.8946 33.7071 27.7071C33.8946 27.5196 34 27.2652 34 27C34 26.7348 33.8946 26.4804 33.7071 26.2929C33.5196 26.1054 33.2652 26 33 26H25ZM24 31C24 31.2652 24.1054 31.5196 24.2929 31.7071C24.4804 31.8946 24.7348 32 25 32H29C29.2652 32 29.5196 31.8946 29.7071 31.7071C29.8946 31.5196 30 31.2652 30 31C30 30.7348 29.8946 30.4804 29.7071 30.2929C29.5196 30.1054 29.2652 30 29 30H25C24.7348 30 24.4804 30.1054 24.2929 30.2929C24.1054 30.4804 24 30.7348 24 31Z" fill="white"/>
</svg>
