<svg width="33" height="33" viewBox="0 0 33 33" fill="none" xmlns="http://www.w3.org/2000/svg">
<path d="M28.5758 4.42407C28.4367 4.28554 28.2608 4.18963 28.069 4.14762C27.8772 4.1056 27.6774 4.11922 27.493 4.18688L4.80553 12.4369C4.60987 12.5111 4.44142 12.6431 4.32255 12.8153C4.20368 12.9875 4.14001 13.1918 4.14001 13.4011C4.14001 13.6104 4.20368 13.8147 4.32255 13.9869C4.44142 14.1591 4.60987 14.2911 4.80553 14.3653L14.7055 18.3253L18.6655 28.2253C18.7399 28.4124 18.8675 28.5736 19.0324 28.689C19.1973 28.8045 19.3924 28.8691 19.5937 28.875C19.8021 28.8707 20.0043 28.8034 20.1736 28.6819C20.343 28.5604 20.4716 28.3904 20.5424 28.1944L28.7924 5.50688C28.8627 5.32443 28.8796 5.12576 28.8413 4.93404C28.8029 4.74233 28.7109 4.56546 28.5758 4.42407V4.42407ZM19.5937 24.9563L16.7165 17.7375L21.6562 12.7978L20.2021 11.3438L15.2212 16.3247L8.04366 13.4063L26.1215 6.87844L19.5937 24.9563Z" fill="white"/>
</svg>
